<svg xmlns="http://www.w3.org/2000/svg" width="1397" height="948" viewBox="0 0 1397 948">
<rect width="100%" height="100%" rx="12" fill="#12121a"/>
<rect x="24.0" y="24.0" width="1348.8" height="18" fill="#1c1c26"/>
<rect x="24.0" y="42.0" width="1348.8" height="18" fill="#1c1c26"/>
<rect x="24.0" y="60.0" width="1348.8" height="18" fill="#1c1c26"/>
<rect x="24.0" y="78.0" width="1348.8" height="18" fill="#1c1c26"/>
<rect x="24.0" y="96.0" width="8.4" height="18" fill="#1c1c26"/>
<rect x="32.4" y="96.0" width="286.6" height="18" fill="#303650"/>
<rect x="319.1" y="96.0" width="1053.8" height="18" fill="#1c1c26"/>
<rect x="24.0" y="114.0" width="1348.8" height="18" fill="#1c1c26"/>
<rect x="24.0" y="132.0" width="1348.8" height="18" fill="#1c1c26"/>
<rect x="24.0" y="150.0" width="1348.8" height="18" fill="#1c1c26"/>
<rect x="24.0" y="168.0" width="1348.8" height="18" fill="#1c1c26"/>
<rect x="24.0" y="186.0" width="1348.8" height="18" fill="#1c1c26"/>
<rect x="24.0" y="204.0" width="1348.8" height="18" fill="#1c1c26"/>
<rect x="24.0" y="222.0" width="1348.8" height="18" fill="#1c1c26"/>
<rect x="24.0" y="240.0" width="1348.8" height="18" fill="#1c1c26"/>
<rect x="24.0" y="258.0" width="1348.8" height="18" fill="#1c1c26"/>
<rect x="24.0" y="276.0" width="1348.8" height="18" fill="#1c1c26"/>
<rect x="24.0" y="294.0" width="1348.8" height="18" fill="#1c1c26"/>
<rect x="24.0" y="312.0" width="1348.8" height="18" fill="#1c1c26"/>
<rect x="24.0" y="330.0" width="1348.8" height="18" fill="#1c1c26"/>
<rect x="24.0" y="348.0" width="1348.8" height="18" fill="#1c1c26"/>
<rect x="24.0" y="366.0" width="1348.8" height="18" fill="#1c1c26"/>
<rect x="24.0" y="384.0" width="1348.8" height="18" fill="#1c1c26"/>
<rect x="24.0" y="402.0" width="1348.8" height="18" fill="#1c1c26"/>
<rect x="24.0" y="420.0" width="1348.8" height="18" fill="#1c1c26"/>
<rect x="24.0" y="438.0" width="1348.8" height="18" fill="#1c1c26"/>
<rect x="24.0" y="456.0" width="1348.8" height="18" fill="#1c1c26"/>
<rect x="24.0" y="474.0" width="1348.8" height="18" fill="#1c1c26"/>
<rect x="24.0" y="492.0" width="1348.8" height="18" fill="#1c1c26"/>
<rect x="24.0" y="510.0" width="1348.8" height="18" fill="#1c1c26"/>
<rect x="24.0" y="528.0" width="1348.8" height="18" fill="#1c1c26"/>
<rect x="24.0" y="546.0" width="1348.8" height="18" fill="#1c1c26"/>
<rect x="24.0" y="564.0" width="1348.8" height="18" fill="#1c1c26"/>
<rect x="24.0" y="582.0" width="1348.8" height="18" fill="#1c1c26"/>
<rect x="24.0" y="600.0" width="1348.8" height="18" fill="#1c1c26"/>
<rect x="24.0" y="618.0" width="1348.8" height="18" fill="#1c1c26"/>
<rect x="24.0" y="636.0" width="1348.8" height="18" fill="#1c1c26"/>
<rect x="24.0" y="654.0" width="1348.8" height="18" fill="#1c1c26"/>
<rect x="24.0" y="672.0" width="1348.8" height="18" fill="#1c1c26"/>
<rect x="24.0" y="690.0" width="1348.8" height="18" fill="#1c1c26"/>
<rect x="24.0" y="708.0" width="1348.8" height="18" fill="#1c1c26"/>
<rect x="24.0" y="726.0" width="1348.8" height="18" fill="#1c1c26"/>
<rect x="24.0" y="744.0" width="1348.8" height="18" fill="#1c1c26"/>
<rect x="24.0" y="762.0" width="1348.8" height="18" fill="#1c1c26"/>
<rect x="24.0" y="780.0" width="1348.8" height="18" fill="#1c1c26"/>
<rect x="24.0" y="798.0" width="1348.8" height="18" fill="#1c1c26"/>
<rect x="24.0" y="816.0" width="1348.8" height="18" fill="#1c1c26"/>
<rect x="24.0" y="834.0" width="1348.8" height="18" fill="#1c1c26"/>
<rect x="24.0" y="852.0" width="1348.8" height="18" fill="#1c1c26"/>
<rect x="24.0" y="870.0" width="1348.8" height="18" fill="#1c1c26"/>
<rect x="24.0" y="888.0" width="1348.8" height="18" fill="#1c1c26"/>
<rect x="24.0" y="906.0" width="1348.8" height="18" fill="#1c1c26"/>
<g font-family="Menlo, Monaco, 'DejaVu Sans Mono', monospace" font-size="14" xml:space="preserve">
<text x="24.0" y="37.5" fill="#64647d" textLength="8.4">╭</text>
<text x="32.4" y="37.5" fill="#78b4ff" font-weight="bold" textLength="168.6"> mac-cleaner v0.1.0 </text>
<text x="201.0" y="37.5" fill="#64647d" textLength="219.2">────────────────────────╮╭</text>
<text x="420.2" y="37.5" fill="#78b4ff" font-weight="bold" textLength="50.6"> Disk </text>
<text x="470.8" y="37.5" fill="#64647d" textLength="902.0">──────────────────────────────────────────────────────────────────────────────────────────────────────────╮</text>
<text x="24.0" y="55.5" fill="#64647d" textLength="109.6">│Reclaimable </text>
<text x="133.6" y="55.5" fill="#64647d" font-weight="bold" textLength="59.0">32.1 GB</text>
<text x="192.6" y="55.5" fill="#64647d" textLength="118.0">  ·  Selected </text>
<text x="310.6" y="55.5" fill="#64647d" font-weight="bold" textLength="50.6">7.2 GB</text>
<text x="361.2" y="55.5" fill="#64647d" textLength="278.2">     ││392 GB used / 102 GB free </text>
<text x="639.4" y="55.5" fill="#78b4ff" textLength="387.8">██████████████████████████████████████████████</text>
<text x="1027.2" y="55.5" fill="#64647d" textLength="118.0">░░░░░░░░░░░░  </text>
<text x="1145.2" y="55.5" fill="#78b4ff" font-weight="bold" textLength="8.4">?</text>
<text x="1153.6" y="55.5" fill="#afafc8" textLength="42.1"> help</text>
<text x="1221.1" y="55.5" fill="#78b4ff" font-weight="bold" textLength="8.4">r</text>
<text x="1229.5" y="55.5" fill="#afafc8" textLength="59.0"> rescan</text>
<text x="1313.8" y="55.5" fill="#78b4ff" font-weight="bold" textLength="8.4">q</text>
<text x="1322.2" y="55.5" fill="#afafc8" textLength="42.1"> quit</text>
<text x="1364.4" y="55.5" fill="#64647d" textLength="8.4">│</text>
<text x="24.0" y="73.5" fill="#64647d" textLength="1348.8">╰────────────────────────────────────────────╯╰────────────────────────────────────────────────────────────────────────────────────────────────────────────────╯</text>
<text x="24.0" y="91.5" fill="#64647d" textLength="8.4">╭</text>
<text x="32.4" y="91.5" fill="#78b4ff" font-weight="bold" textLength="101.2"> Categories </text>
<text x="133.6" y="91.5" fill="#64647d" textLength="202.3">──────────────────────╮╭</text>
<text x="335.9" y="91.5" fill="#78b4ff" font-weight="bold" textLength="261.3"> Dashboard — reclaimable space </text>
<text x="597.2" y="91.5" fill="#64647d" textLength="775.6">───────────────────────────────────────────────────────────────────────────────────────────╮</text>
<text x="24.0" y="109.5" fill="#64647d" textLength="8.4">│</text>
<text x="32.4" y="109.5" fill="#b48cff" font-weight="bold" textLength="16.9">▸ </text>
<text x="49.3" y="109.5" fill="#78b4ff" textLength="16.9">◆ </text>
<text x="66.2" y="109.5" fill="#b48cff" font-weight="bold" textLength="118.0">Dashboard     </text>
<text x="184.2" y="109.5" fill="#64dc8c" textLength="59.0">   6/13</text>
<text x="243.2" y="109.5" fill="#dcdce6" textLength="75.9">  32.1 GB</text>
<text x="319.1" y="109.5" fill="#64647d" textLength="1053.8">││                                                                                                                          │</text>
<text x="24.0" y="127.5" fill="#64647d" textLength="8.4">│</text>
<text x="32.4" y="127.5" fill="#afafc8" textLength="286.6">  ────────────────────────────────</text>
<text x="319.1" y="127.5" fill="#64647d" textLength="1053.8">││                                                                                                                          │</text>
<text x="24.0" y="145.5" fill="#64647d" textLength="25.3">│  </text>
<text x="49.3" y="145.5" fill="#64b4ff" textLength="16.9">● </text>
<text x="66.2" y="145.5" fill="#dcdce6" textLength="118.0">Caches        </text>
<text x="184.2" y="145.5" fill="#64dc8c" textLength="59.0">    4/5</text>
<text x="243.2" y="145.5" fill="#dcdce6" textLength="75.9">   6.3 GB</text>
<text x="319.1" y="145.5" fill="#64647d" textLength="269.8">││                              </text>
<text x="588.8" y="145.5" fill="#dc6e6e" textLength="42.1">█████</text>
<text x="631.0" y="145.5" fill="#64b4ff" textLength="50.6">██████</text>
<text x="681.5" y="145.5" fill="#64647d" textLength="691.3">                                                                                 │</text>
<text x="24.0" y="163.5" fill="#64647d" textLength="25.3">│  </text>
<text x="49.3" y="163.5" fill="#ffaf5a" textLength="16.9">● </text>
<text x="66.2" y="163.5" fill="#dcdce6" textLength="118.0">Logs          </text>
<text x="184.2" y="163.5" fill="#64dc8c" textLength="59.0">    1/1</text>
<text x="243.2" y="163.5" fill="#dcdce6" textLength="75.9">   307 MB</text>
<text x="319.1" y="163.5" fill="#64647d" textLength="210.8">││                       </text>
<text x="529.8" y="163.5" fill="#ff78af" textLength="59.0">███████</text>
<text x="588.8" y="163.5" fill="#dc6e6e" textLength="42.1">█████</text>
<text x="631.0" y="163.5" fill="#64b4ff" textLength="109.6">█████████████</text>
<text x="740.5" y="163.5" fill="#64647d" textLength="632.2">                                                                          │</text>
<text x="24.0" y="181.5" fill="#64647d" textLength="25.3">│  </text>
<text x="49.3" y="181.5" fill="#78dcaa" textLength="16.9">● </text>
<text x="66.2" y="181.5" fill="#dcdce6" textLength="118.0">Dev Artifacts </text>
<text x="184.2" y="181.5" fill="#afafc8" textLength="59.0">    0/3</text>
<text x="243.2" y="181.5" fill="#dcdce6" textLength="75.9">  12.8 GB</text>
<text x="319.1" y="181.5" fill="#64647d" textLength="168.6">││                  </text>
<text x="487.6" y="181.5" fill="#ff78af" textLength="109.6">█████████████</text>
<text x="597.2" y="181.5" fill="#dc6e6e" textLength="33.7">████</text>
<text x="631.0" y="181.5" fill="#64b4ff" textLength="151.7">██████████████████</text>
<text x="782.7" y="181.5" fill="#64647d" textLength="590.1">                                                                     │</text>
<text x="24.0" y="199.5" fill="#64647d" textLength="25.3">│  </text>
<text x="49.3" y="199.5" fill="#b48cff" textLength="16.9">● </text>
<text x="66.2" y="199.5" fill="#dcdce6" textLength="118.0">Duplicates    </text>
<text x="184.2" y="199.5" fill="#afafc8" textLength="59.0">    0/1</text>
<text x="243.2" y="199.5" fill="#dcdce6" textLength="75.9">   1.1 GB</text>
<text x="319.1" y="199.5" fill="#64647d" textLength="143.3">││               </text>
<text x="462.4" y="199.5" fill="#ff78af" textLength="134.9">████████████████</text>
<text x="597.2" y="199.5" fill="#dc6e6e" textLength="33.7">████</text>
<text x="631.0" y="199.5" fill="#64b4ff" textLength="177.0">█████████████████████</text>
<text x="808.0" y="199.5" fill="#64647d" textLength="564.8">                                                                  │</text>
<text x="24.0" y="217.5" fill="#64647d" textLength="25.3">│  </text>
<text x="49.3" y="217.5" fill="#5ad2e6" textLength="16.9">● </text>
<text x="66.2" y="217.5" fill="#dcdce6" textLength="118.0">iCloud Offload</text>
<text x="184.2" y="217.5" fill="#afafc8" textLength="59.0">    0/1</text>
<text x="243.2" y="217.5" fill="#dcdce6" textLength="75.9">   2.6 GB</text>
<text x="319.1" y="217.5" fill="#64647d" textLength="126.4">││             </text>
<text x="445.5" y="217.5" fill="#ff78af" textLength="151.7">██████████████████</text>
<text x="597.2" y="217.5" fill="#dc6e6e" textLength="33.7">████</text>
<text x="631.0" y="217.5" fill="#64b4ff" textLength="193.9">███████████████████████</text>
<text x="824.9" y="217.5" fill="#64647d" textLength="547.9">                                                                │</text>
<text x="24.0" y="235.5" fill="#64647d" textLength="25.3">│  </text>
<text x="49.3" y="235.5" fill="#ff78af" textLength="16.9">● </text>
<text x="66.2" y="235.5" fill="#dcdce6" textLength="118.0">Large Files   </text>
<text x="184.2" y="235.5" fill="#afafc8" textLength="59.0">    0/1</text>
<text x="243.2" y="235.5" fill="#dcdce6" textLength="75.9">   8.2 GB</text>
<text x="319.1" y="235.5" fill="#64647d" textLength="109.6">││           </text>
<text x="428.6" y="235.5" fill="#ff78af" textLength="177.0">█████████████████████</text>
<text x="605.7" y="235.5" fill="#dc6e6e" textLength="25.3">███</text>
<text x="631.0" y="235.5" fill="#64b4ff" textLength="210.8">█████████████████████████</text>
<text x="841.7" y="235.5" fill="#64647d" textLength="531.1">                                                              │</text>
<text x="24.0" y="253.5" fill="#64647d" textLength="25.3">│  </text>
<text x="49.3" y="253.5" fill="#dc6e6e" textLength="16.9">● </text>
<text x="66.2" y="253.5" fill="#dcdce6" textLength="118.0">Trash Bin     </text>
<text x="184.2" y="253.5" fill="#64dc8c" textLength="59.0">    1/1</text>
<text x="243.2" y="253.5" fill="#dcdce6" textLength="75.9">   819 MB</text>
<text x="319.1" y="253.5" fill="#64647d" textLength="92.7">││         </text>
<text x="411.8" y="253.5" fill="#ff78af" textLength="193.9">███████████████████████</text>
<text x="605.7" y="253.5" fill="#dc6e6e" textLength="25.3">███</text>
<text x="631.0" y="253.5" fill="#64b4ff" textLength="227.6">███████████████████████████</text>
<text x="858.6" y="253.5" fill="#64647d" textLength="514.2">                                                            │</text>
<text x="24.0" y="271.5" fill="#64647d" textLength="370.9">│                                  ││       </text>
<text x="394.9" y="271.5" fill="#ff78af" textLength="210.8">█████████████████████████</text>
<text x="605.7" y="271.5" fill="#dc6e6e" textLength="25.3">███</text>
<text x="631.0" y="271.5" fill="#64b4ff" textLength="244.5">█████████████████████████████</text>
<text x="875.4" y="271.5" fill="#64647d" textLength="497.4">                                                          │</text>
<text x="24.0" y="289.5" fill="#64647d" textLength="362.5">│                                  ││      </text>
<text x="386.5" y="289.5" fill="#ff78af" textLength="227.6">███████████████████████████</text>
<text x="614.1" y="289.5" fill="#dc6e6e" textLength="16.9">██</text>
<text x="631.0" y="289.5" fill="#64b4ff" textLength="252.9">██████████████████████████████</text>
<text x="883.9" y="289.5" fill="#64647d" textLength="488.9">                                                         │</text>
<text x="24.0" y="307.5" fill="#64647d" textLength="354.1">│                                  ││     </text>
<text x="378.1" y="307.5" fill="#ff78af" textLength="236.0">████████████████████████████</text>
<text x="614.1" y="307.5" fill="#dc6e6e" textLength="16.9">██</text>
<text x="631.0" y="307.5" fill="#64b4ff" textLength="261.3">███████████████████████████████</text>
<text x="892.3" y="307.5" fill="#64647d" textLength="480.5">                                                        │</text>
<text x="24.0" y="325.5" fill="#64647d" textLength="345.6">│                                  ││    </text>
<text x="369.6" y="325.5" fill="#ff78af" textLength="236.0">████████████████████████████</text>
<text x="664.7" y="325.5" fill="#64b4ff" textLength="236.0">████████████████████████████</text>
<text x="900.7" y="325.5" fill="#64647d" textLength="472.1">                                                       │</text>
<text x="24.0" y="343.5" fill="#64647d" textLength="337.2">│                                  ││   </text>
<text x="361.2" y="343.5" fill="#ff78af" textLength="202.3">████████████████████████</text>
<text x="706.8" y="343.5" fill="#64b4ff" textLength="202.3">████████████████████████</text>
<text x="909.1" y="343.5" fill="#64647d" textLength="463.6">                                                      │</text>
<text x="24.0" y="361.5" fill="#64647d" textLength="328.8">│                                  ││  </text>
<text x="352.8" y="361.5" fill="#ff78af" textLength="193.9">███████████████████████</text>
<text x="723.7" y="361.5" fill="#64b4ff" textLength="151.7">██████████████████</text>
<text x="875.4" y="361.5" fill="#ffaf5a" textLength="42.1">█████</text>
<text x="917.6" y="361.5" fill="#64647d" textLength="455.2">                                                     │</text>
<text x="24.0" y="379.5" fill="#64647d" textLength="328.8">│                                  ││  </text>
<text x="352.8" y="379.5" fill="#ff78af" textLength="177.0">█████████████████████</text>
<text x="740.5" y="379.5" fill="#64b4ff" textLength="84.3">██████████</text>
<text x="824.9" y="379.5" fill="#ffaf5a" textLength="42.1">█████</text>
<text x="867.0" y="379.5" fill="#78dcaa" textLength="50.6">██████</text>
<text x="934.4" y="379.5" fill="#78b4ff" font-weight="bold" textLength="75.9">Breakdown</text>
<text x="1010.3" y="379.5" fill="#64647d" textLength="362.5">                                          │</text>
<text x="24.0" y="397.5" fill="#64647d" textLength="328.8">│                                  ││  </text>
<text x="352.8" y="397.5" fill="#ff78af" textLength="168.6">████████████████████</text>
<text x="749.0" y="397.5" fill="#64b4ff" textLength="33.7">████</text>
<text x="782.7" y="397.5" fill="#ffaf5a" textLength="25.3">███</text>
<text x="808.0" y="397.5" fill="#78dcaa" textLength="109.6">█████████████</text>
<text x="917.6" y="397.5" fill="#64647d" textLength="455.2">                                                     │</text>
<text x="24.0" y="415.5" fill="#64647d" textLength="320.3">│                                  ││ </text>
<text x="344.3" y="415.5" fill="#ff78af" textLength="177.0">█████████████████████</text>
<text x="749.0" y="415.5" fill="#78dcaa" textLength="177.0">█████████████████████</text>
<text x="934.4" y="415.5" fill="#64b4ff" textLength="25.3">██ </text>
<text x="959.7" y="415.5" fill="#dcdce6" textLength="118.0">Caches        </text>
<text x="1077.8" y="415.5" fill="#64b4ff" textLength="75.9">   6.3 GB</text>
<text x="1153.6" y="415.5" fill="#afafc8" textLength="126.4">   20%  5 items</text>
<text x="1280.1" y="415.5" fill="#64647d" textLength="92.7">          │</text>
<text x="24.0" y="433.5" fill="#64647d" textLength="320.3">│                                  ││ </text>
<text x="344.3" y="433.5" fill="#ff78af" textLength="168.6">████████████████████</text>
<text x="614.1" y="433.5" fill="#afafc8" textLength="42.1">Total</text>
<text x="757.4" y="433.5" fill="#78dcaa" textLength="168.6">████████████████████</text>
<text x="934.4" y="433.5" fill="#ffaf5a" textLength="25.3">██ </text>
<text x="959.7" y="433.5" fill="#dcdce6" textLength="118.0">Logs          </text>
<text x="1077.8" y="433.5" fill="#ffaf5a" textLength="75.9">   307 MB</text>
<text x="1153.6" y="433.5" fill="#afafc8" textLength="118.0">    1%  1 item</text>
<text x="1271.6" y="433.5" fill="#64647d" textLength="101.2">           │</text>
<text x="24.0" y="451.5" fill="#64647d" textLength="320.3">│                                  ││ </text>
<text x="344.3" y="451.5" fill="#ff78af" textLength="168.6">████████████████████</text>
<text x="605.7" y="451.5" fill="#78b4ff" font-weight="bold" textLength="59.0">32.1 GB</text>
<text x="757.4" y="451.5" fill="#78dcaa" textLength="168.6">████████████████████</text>
<text x="934.4" y="451.5" fill="#78dcaa" textLength="25.3">██ </text>
<text x="959.7" y="451.5" fill="#dcdce6" textLength="118.0">Dev Artifacts </text>
<text x="1077.8" y="451.5" fill="#78dcaa" textLength="75.9">  12.8 GB</text>
<text x="1153.6" y="451.5" fill="#afafc8" textLength="126.4">   40%  3 items</text>
<text x="1280.1" y="451.5" fill="#64647d" textLength="92.7">          │</text>
<text x="24.0" y="469.5" fill="#64647d" textLength="320.3">│                                  ││ </text>
<text x="344.3" y="469.5" fill="#ff78af" textLength="168.6">████████████████████</text>
<text x="757.4" y="469.5" fill="#78dcaa" textLength="168.6">████████████████████</text>
<text x="934.4" y="469.5" fill="#b48cff" textLength="25.3">██ </text>
<text x="959.7" y="469.5" fill="#dcdce6" textLength="118.0">Duplicates    </text>
<text x="1077.8" y="469.5" fill="#b48cff" textLength="75.9">   1.1 GB</text>
<text x="1153.6" y="469.5" fill="#afafc8" textLength="118.0">    3%  1 item</text>
<text x="1271.6" y="469.5" fill="#64647d" textLength="101.2">           │</text>
<text x="24.0" y="487.5" fill="#64647d" textLength="320.3">│                                  ││ </text>
<text x="344.3" y="487.5" fill="#ff78af" textLength="118.0">██████████████</text>
<text x="462.4" y="487.5" fill="#5ad2e6" textLength="59.0">███████</text>
<text x="749.0" y="487.5" fill="#78dcaa" textLength="177.0">█████████████████████</text>
<text x="934.4" y="487.5" fill="#5ad2e6" textLength="25.3">██ </text>
<text x="959.7" y="487.5" fill="#dcdce6" textLength="118.0">iCloud Offload</text>
<text x="1077.8" y="487.5" fill="#5ad2e6" textLength="75.9">   2.6 GB</text>
<text x="1153.6" y="487.5" fill="#afafc8" textLength="118.0">    8%  1 item</text>
<text x="1271.6" y="487.5" fill="#64647d" textLength="101.2">           │</text>
<text x="24.0" y="505.5" fill="#64647d" textLength="328.8">│                                  ││  </text>
<text x="352.8" y="505.5" fill="#ff78af" textLength="16.9">██</text>
<text x="369.6" y="505.5" fill="#5ad2e6" textLength="151.7">██████████████████</text>
<text x="749.0" y="505.5" fill="#78dcaa" textLength="168.6">████████████████████</text>
<text x="934.4" y="505.5" fill="#ff78af" textLength="25.3">██ </text>
<text x="959.7" y="505.5" fill="#dcdce6" textLength="118.0">Large Files   </text>
<text x="1077.8" y="505.5" fill="#ff78af" textLength="75.9">   8.2 GB</text>
<text x="1153.6" y="505.5" fill="#afafc8" textLength="118.0">   26%  1 item</text>
<text x="1271.6" y="505.5" fill="#64647d" textLength="101.2">           │</text>
<text x="24.0" y="523.5" fill="#64647d" textLength="328.8">│                                  ││  </text>
<text x="352.8" y="523.5" fill="#5ad2e6" textLength="177.0">█████████████████████</text>
<text x="740.5" y="523.5" fill="#78dcaa" textLength="177.0">█████████████████████</text>
<text x="934.4" y="523.5" fill="#dc6e6e" textLength="25.3">██ </text>
<text x="959.7" y="523.5" fill="#dcdce6" textLength="118.0">Trash Bin     </text>
<text x="1077.8" y="523.5" fill="#dc6e6e" textLength="75.9">   819 MB</text>
<text x="1153.6" y="523.5" fill="#afafc8" textLength="118.0">    2%  1 item</text>
<text x="1271.6" y="523.5" fill="#64647d" textLength="101.2">           │</text>
<text x="24.0" y="541.5" fill="#64647d" textLength="328.8">│                                  ││  </text>
<text x="352.8" y="541.5" fill="#5ad2e6" textLength="185.5">██████████████████████</text>
<text x="538.2" y="541.5" fill="#b48cff" textLength="8.4">█</text>
<text x="723.7" y="541.5" fill="#78dcaa" textLength="193.9">███████████████████████</text>
<text x="917.6" y="541.5" fill="#64647d" textLength="455.2">                                                     │</text>
<text x="24.0" y="559.5" fill="#64647d" textLength="337.2">│                                  ││   </text>
<text x="361.2" y="559.5" fill="#5ad2e6" textLength="151.7">██████████████████</text>
<text x="512.9" y="559.5" fill="#b48cff" textLength="42.1">█████</text>
<text x="555.1" y="559.5" fill="#78dcaa" textLength="8.4">█</text>
<text x="706.8" y="559.5" fill="#78dcaa" textLength="202.3">████████████████████████</text>
<text x="909.1" y="559.5" fill="#64647d" textLength="463.6">                                                      │</text>
<text x="24.0" y="577.5" fill="#64647d" textLength="345.6">│                                  ││    </text>
<text x="369.6" y="577.5" fill="#5ad2e6" textLength="126.4">███████████████</text>
<text x="496.1" y="577.5" fill="#b48cff" textLength="50.6">██████</text>
<text x="546.7" y="577.5" fill="#78dcaa" textLength="59.0">███████</text>
<text x="664.7" y="577.5" fill="#78dcaa" textLength="236.0">████████████████████████████</text>
<text x="900.7" y="577.5" fill="#64647d" textLength="472.1">                                                       │</text>
<text x="24.0" y="595.5" fill="#64647d" textLength="354.1">│                                  ││     </text>
<text x="378.1" y="595.5" fill="#5ad2e6" textLength="92.7">███████████</text>
<text x="470.8" y="595.5" fill="#b48cff" textLength="59.0">███████</text>
<text x="529.8" y="595.5" fill="#78dcaa" textLength="362.5">███████████████████████████████████████████</text>
<text x="892.3" y="595.5" fill="#64647d" textLength="480.5">                                                        │</text>
<text x="24.0" y="613.5" fill="#64647d" textLength="362.5">│                                  ││      </text>
<text x="386.5" y="613.5" fill="#5ad2e6" textLength="67.4">████████</text>
<text x="453.9" y="613.5" fill="#b48cff" textLength="67.4">████████</text>
<text x="521.4" y="613.5" fill="#78dcaa" textLength="362.5">███████████████████████████████████████████</text>
<text x="883.9" y="613.5" fill="#64647d" textLength="488.9">                                                         │</text>
<text x="24.0" y="631.5" fill="#64647d" textLength="370.9">│                                  ││       </text>
<text x="394.9" y="631.5" fill="#5ad2e6" textLength="42.1">█████</text>
<text x="437.1" y="631.5" fill="#b48cff" textLength="67.4">████████</text>
<text x="504.5" y="631.5" fill="#78dcaa" textLength="370.9">████████████████████████████████████████████</text>
<text x="875.4" y="631.5" fill="#64647d" textLength="497.4">                                                          │</text>
<text x="24.0" y="649.5" fill="#64647d" textLength="387.8">│                                  ││         </text>
<text x="411.8" y="649.5" fill="#b48cff" textLength="84.3">██████████</text>
<text x="496.1" y="649.5" fill="#78dcaa" textLength="362.5">███████████████████████████████████████████</text>
<text x="858.6" y="649.5" fill="#64647d" textLength="514.2">                                                            │</text>
<text x="24.0" y="667.5" fill="#64647d" textLength="404.6">│                                  ││           </text>
<text x="428.6" y="667.5" fill="#b48cff" textLength="50.6">██████</text>
<text x="479.2" y="667.5" fill="#78dcaa" textLength="362.5">███████████████████████████████████████████</text>
<text x="841.7" y="667.5" fill="#64647d" textLength="531.1">                                                              │</text>
<text x="24.0" y="685.5" fill="#64647d" textLength="421.5">│                                  ││             </text>
<text x="445.5" y="685.5" fill="#b48cff" textLength="16.9">██</text>
<text x="462.4" y="685.5" fill="#78dcaa" textLength="362.5">███████████████████████████████████████████</text>
<text x="824.9" y="685.5" fill="#64647d" textLength="547.9">                                                                │</text>
<text x="24.0" y="703.5" fill="#64647d" textLength="438.4">│                                  ││               </text>
<text x="462.4" y="703.5" fill="#78dcaa" textLength="345.6">█████████████████████████████████████████</text>
<text x="808.0" y="703.5" fill="#64647d" textLength="564.8">                                                                  │</text>
<text x="24.0" y="721.5" fill="#64647d" textLength="463.6">│                                  ││                  </text>
<text x="487.6" y="721.5" fill="#78dcaa" textLength="295.1">███████████████████████████████████</text>
<text x="782.7" y="721.5" fill="#64647d" textLength="590.1">                                                                     │</text>
<text x="24.0" y="739.5" fill="#64647d" textLength="505.8">│                                  ││                       </text>
<text x="529.8" y="739.5" fill="#78dcaa" textLength="210.8">█████████████████████████</text>
<text x="740.5" y="739.5" fill="#64647d" textLength="632.2">                                                                          │</text>
<text x="24.0" y="757.5" fill="#64647d" textLength="564.8">│                                  ││                              </text>
<text x="588.8" y="757.5" fill="#78dcaa" textLength="92.7">███████████</text>
<text x="681.5" y="757.5" fill="#64647d" textLength="691.3">                                                                                 │</text>
<text x="24.0" y="775.5" fill="#64647d" textLength="1348.8">│                                  ││                                                                                                                          │</text>
<text x="24.0" y="793.5" fill="#64647d" textLength="1348.8">│                                  ││                                                                                                                          │</text>
<text x="24.0" y="811.5" fill="#64647d" textLength="1348.8">│                                  ││                                                                                                                          │</text>
<text x="24.0" y="829.5" fill="#64647d" textLength="590.1">│                                  ││                                 </text>
<text x="614.1" y="829.5" fill="#78b4ff" font-weight="bold" textLength="25.3">Tab</text>
<text x="639.4" y="829.5" fill="#afafc8" textLength="134.9"> open a category</text>
<text x="799.6" y="829.5" fill="#78b4ff" font-weight="bold" textLength="8.4">s</text>
<text x="808.0" y="829.5" fill="#afafc8" textLength="193.9"> select everything safe</text>
<text x="1027.2" y="829.5" fill="#78b4ff" font-weight="bold" textLength="8.4">d</text>
<text x="1035.6" y="829.5" fill="#afafc8" textLength="50.6"> clean</text>
<text x="1086.2" y="829.5" fill="#64647d" textLength="286.6">                                 │</text>
<text x="24.0" y="847.5" fill="#64647d" textLength="1348.8">╰──────────────────────────────────╯╰──────────────────────────────────────────────────────────────────────────────────────────────────────────────────────────╯</text>
<text x="24.0" y="865.5" fill="#64647d" textLength="1348.8">╭──────────────────────────────────────────────────────────────────────────────────────────────────────────────────────────────────────────────────────────────╮</text>
<text x="24.0" y="883.5" fill="#64647d" textLength="8.4">│</text>
<text x="32.4" y="883.5" fill="#64dc8c" font-weight="bold" textLength="160.2">6 selected · 7.2 GB</text>
<text x="192.6" y="883.5" fill="#afafc8" textLength="92.7">  —  press </text>
<text x="285.3" y="883.5" fill="#78b4ff" font-weight="bold" textLength="8.4">d</text>
<text x="293.8" y="883.5" fill="#afafc8" textLength="75.9"> to clean</text>
<text x="369.6" y="883.5" fill="#64647d" textLength="1003.2">                                                                                                                      │</text>
<text x="24.0" y="901.5" fill="#64647d" textLength="8.4">│</text>
<text x="32.4" y="901.5" fill="#78b4ff" font-weight="bold" textLength="25.3">Tab</text>
<text x="57.7" y="901.5" fill="#afafc8" textLength="101.2"> switch view</text>
<text x="184.2" y="901.5" fill="#78b4ff" font-weight="bold" textLength="42.1">Space</text>
<text x="226.3" y="901.5" fill="#afafc8" textLength="59.0"> select</text>
<text x="310.6" y="901.5" fill="#78b4ff" font-weight="bold" textLength="8.4">a</text>
<text x="319.1" y="901.5" fill="#afafc8" textLength="33.7"> all</text>
<text x="378.1" y="901.5" fill="#78b4ff" font-weight="bold" textLength="8.4">s</text>
<text x="386.5" y="901.5" fill="#afafc8" textLength="75.9"> all safe</text>
<text x="487.6" y="901.5" fill="#78b4ff" font-weight="bold" textLength="8.4">i</text>
<text x="496.1" y="901.5" fill="#afafc8" textLength="59.0"> invert</text>
<text x="580.4" y="901.5" fill="#78b4ff" font-weight="bold" textLength="8.4">n</text>
<text x="588.8" y="901.5" fill="#afafc8" textLength="50.6"> clear</text>
<text x="664.7" y="901.5" fill="#78b4ff" font-weight="bold" textLength="8.4">d</text>
<text x="673.1" y="901.5" fill="#afafc8" textLength="50.6"> clean</text>
<text x="749.0" y="901.5" fill="#78b4ff" font-weight="bold" textLength="8.4">D</text>
<text x="757.4" y="901.5" fill="#afafc8" textLength="126.4"> delete forever</text>
<text x="909.1" y="901.5" fill="#78b4ff" font-weight="bold" textLength="8.4">r</text>
<text x="917.6" y="901.5" fill="#afafc8" textLength="59.0"> rescan</text>
<text x="1001.9" y="901.5" fill="#78b4ff" font-weight="bold" textLength="8.4">?</text>
<text x="1010.3" y="901.5" fill="#afafc8" textLength="42.1"> help</text>
<text x="1077.8" y="901.5" fill="#78b4ff" font-weight="bold" textLength="8.4">q</text>
<text x="1086.2" y="901.5" fill="#afafc8" textLength="42.1"> quit</text>
<text x="1128.3" y="901.5" fill="#64647d" textLength="244.5">                            │</text>
<text x="24.0" y="919.5" fill="#64647d" textLength="1348.8">╰──────────────────────────────────────────────────────────────────────────────────────────────────────────────────────────────────────────────────────────────╯</text>
</g></svg>
